HIERARCHY
ROOT ui
{
	 OFFSET 0 0 0
	 CHANNELS 3 XPosition YPosition Z Position
	 EndSite
	 {
	 OFFSET 0 -1 0
	 }
}
ROOT li
{
	 OFFSET 0 0 0
	 CHANNELS 3 XPosition YPosition Z Position
	 EndSite
	 {
	 OFFSET 0 -1 0
	 }
}
ROOT ul
{
	 OFFSET 0 0 0
	 CHANNELS 3 XPosition YPosition Z Position
	 EndSite
	 {
	 OFFSET 0 -1 0
	 }
}
ROOT ll
{
	 OFFSET 0 0 0
	 CHANNELS 3 XPosition YPosition Z Position
	 EndSite
	 {
	 OFFSET 0 -1 0
	 }
}
ROOT tt
{
	 OFFSET 0 0 0
	 CHANNELS 3 XPosition YPosition Z Position
	 EndSite
	 {
	 OFFSET 0 -1 0
	 }
}
ROOT tb
{
	 OFFSET 0 0 0
	 CHANNELS 3 XPosition YPosition Z Position
	 EndSite
	 {
	 OFFSET 0 -1 0
	 }
}
ROOT td
{
	 OFFSET 0 0 0
	 CHANNELS 3 XPosition YPosition Z Position
	 EndSite
	 {
	 OFFSET 0 -1 0
	 }
}
ROOT v
{
	 OFFSET 0 0 0
	 CHANNELS 3 XPosition YPosition Z Position
	 EndSite
	 {
	 OFFSET 0 -1 0
	 }
}
ROOT bn
{
	 OFFSET 0 0 0
	 CHANNELS 3 XPosition YPosition Z Position
	 EndSite
	 {
	 OFFSET 0 -1 0
	 }
}
MOTION
Frames: 29
Frame Time: 0.002
-0.003094980955123901	9.81689989566803E-5	0		0.4629504089355469	-2.357111083984375	0		-1.045139892578125	0.008785894393920898	0		-0.8166908569335938	-2.230453369140625	0		1.3835343017578126	-0.752921875	0		3.2057978515625	-0.32675241088867185	0		4.80653173828125	-0.21204022216796875	0		5.54284521484375	0.13171092224121095	0		0.03241482162475586	5.98265478515625	0		
0.005327699184417725	0.006606983184814453	0		0.47059246826171874	-2.350538330078125	0		-0.9617548217773437	0.012644192695617677	0		-0.765318603515625	-2.236908447265625	0		1.3910064697265625	-0.74726318359375	0		3.20346044921875	-0.309719482421875	0		4.80299755859375	-0.20383580017089845	0		5.54892431640625	0.12278026580810547	0		0.03215866088867188	5.983333984375	0		
-0.02248894691467285	0.0038693320751190187	0		0.4700099792480469	-2.352789794921875	0		-1.0385408935546876	0.011826990127563476	0		-0.7778060302734375	-2.2340283203125	0		1.41845458984375	-0.7410084228515625	0		3.187382080078125	-0.3264041748046875	0		4.81013134765625	-0.20984840393066406	0		5.53638232421875	0.13424592590332032	0		0.018617864608764648	5.972291015625	0		
0.004674171924591065	0.0020079200267791746	0		0.4942643737792969	-2.36054345703125	0		-0.967469970703125	0.004970719814300537	0		-0.750316650390625	-2.22995947265625	0		1.4166502685546876	-0.7441431884765625	0		3.18274609375	-0.3193189086914062	0		4.792384765625	-0.207347900390625	0		5.5375595703125	0.134422607421875	0		0.01926542282104492	5.97196728515625	0		
-0.02425055122375488	-6.892409920692444E-4	0		0.46864492797851565	-2.358260986328125	0		-1.040303955078125	0.007088626861572266	0		-0.7510343627929688	-2.232294677734375	0		1.417844970703125	-0.7443326416015625	0		3.234525390625	-0.33839523315429687	0		4.809345703125	-0.21657167053222656	0		5.5482880859375	0.11538785552978516	0		-0.098339599609375	5.962072265625	0		
0.006869456768035889	0.0014019229412078858	0		0.4787334594726563	-2.366700439453125	0		-1.0392393798828126	0.006710340023040771	0		-0.76401220703125	-2.2433623046875	0		1.3869556884765626	-0.7448627319335938	0		3.19513525390625	-0.3126023254394531	0		4.807693359375	-0.20342453002929686	0		5.53455078125	0.12583902740478517	0		-0.09775051116943359	5.96176953125	0		
-0.01810965919494629	0.0026531519889831543	0		0.4772052307128906	-2.351884521484375	0		-1.0341641845703125	0.010276321411132813	0		-0.7445536499023437	-2.229062744140625	0		1.4289559326171875	-0.7478707275390625	0		3.219904541015625	-0.32513232421875	0		4.81458056640625	-0.20947366333007814	0		5.549716796875	0.13467707824707031	0		0.035252696990966795	5.9818017578125	0		
0.008787718772888184	8.69687020778656E-4	0		0.5001343994140625	-2.359553955078125	0		-0.9633572998046875	0.003537765026092529	0		-0.7695821533203125	-2.23384033203125	0		1.388976318359375	-0.7452056884765625	0		3.228231689453125	-0.30632598876953127	0		4.80551904296875	-0.20921630859375	0		5.5464296875	0.12486265563964843	0		0.02156907081604004	5.9708330078125	0		
-0.016337127685546876	0.0021596519947052	0		0.47312432861328124	-2.3591953125	0		-0.9625077514648438	0.003247987985610962	0		-0.7367528076171875	-2.241763427734375	0		1.4218822021484374	-0.7450071411132813	0		3.21275927734375	-0.3230505676269531	0		4.81323828125	-0.2163170166015625	0		5.5662685546875	0.12456067657470703	0		0.02207842445373535	5.97059912109375	0		
0.006354172229766846	-0.0024953091144561765	0		0.5009713134765625	-2.36192724609375	0		-0.9617315063476563	0.002988308906555176	0		-0.7717982177734375	-2.2382880859375	0		1.4226953125	-0.7451492309570312	0		3.192716796875	-0.3146833801269531	0		4.81128759765625	-0.20323416137695313	0		5.54804248046875	0.12500527954101562	0		0.022560394287109375	5.97038818359375	0		
-0.01485687255859375	0.0017572300434112549	0		0.485696533203125	-2.36577294921875	0		-1.0309130859375	0.0091643705368042	0		-0.72317138671875	-2.24747119140625	0		1.4323682861328124	-0.748458984375	0		3.247161865234375	-0.3288211669921875	0		4.81683837890625	-0.21132159423828126	0		5.5535595703125	0.11594870758056641	0		-0.09326171875	5.957533203125	0		
0.014831268310546875	0.004010172843933105	0		0.490510498046875	-2.361002197265625	0		-1.0262200927734375	0.011883899688720704	0		-0.7882271118164063	-2.23533935546875	0		1.40027490234375	-0.7359154663085937	0		3.201277587890625	-0.30493731689453124	0		4.812640625	-0.20322325134277344	0		5.5535302734375	0.1329901580810547	0		0.03766419219970703	5.98075390625	0		
-0.010597368240356446	0.004391236782073975	0		0.48026318359375	-2.35490966796875	0		-0.955748291015625	0.006315400123596191	0		-0.741529296875	-2.23242236328125	0		1.4336142578125	-0.7486756591796875	0		3.19641259765625	-0.32688580322265626	0		4.81425244140625	-0.20125294494628906	0		5.545134765625	0.1351807861328125	0		0.023850679397583008	5.9698974609375	0		
0.012819046020507813	-1.8383200466632842E-4	0		0.4767143249511719	-2.359934326171875	0		-1.033291748046875	0.004740481853485108	0		-0.7691159057617187	-2.2389921875	0		1.428252197265625	-0.7426425170898437	0		3.208958251953125	-0.32517501831054685	0		4.8054794921875	-0.21508512878417968	0		5.55043212890625	0.12508306884765624	0		0.024227005004882812	5.9697822265625	0		
-0.01271763801574707	0.0012434309720993043	0		0.4771885375976562	-2.360019287109375	0		-0.958888427734375	0.0021535708904266357	0		-0.732710693359375	-2.242815185546875	0		1.425642333984375	-0.7456524658203125	0		3.242135009765625	-0.338875244140625	0		4.82585693359375	-0.2185031280517578	0		5.5460693359375	0.13517350769042968	0		0.038790897369384764	5.980408203125	0		
0.0095752592086792	-0.0032658379077911376	0		0.47758987426757815	-2.3600849609375	0		-1.0324765625	0.004551281929016113	0		-0.80215673828125	-2.234496337890625	0		1.4408443603515626	-0.7550062255859376	0		3.2300576171875	-0.31165829467773437	0		4.81453857421875	-0.20328753662109375	0		5.55124462890625	0.1250618667602539	0		-0.09234632873535156	5.9589599609375	0		
-0.012021991729736328	0.0011228100061416626	0		0.5177943725585937	-2.3669296875	0		-0.9541137084960938	0.0059370617866516115	0		-0.7180416870117188	-2.246226318359375	0		1.4414268798828125	-0.7420503540039063	0		3.24693505859375	-0.33402444458007813	0		4.82485595703125	-0.20350901794433593	0		5.55156201171875	0.12504439544677734	0		0.026133411407470702	5.96755078125	0		
-0.011759444236755371	0.0010921529531478882	0		0.4802301025390625	-2.358201904296875	0		-1.02781640625	0.00838144302368164	0		-0.7296713256835937	-2.24102001953125	0		1.435552734375	-0.7489561767578125	0		3.239599365234375	-0.3138912353515625	0		4.811001953125	-0.20924693298339844	0		5.5560234375	0.1349456787109375	0		0.025421289443969725	5.96953955078125	0		
0.01442611026763916	-4.392940104007721E-4	0		0.5053566589355468	-2.362712646484375	0		-0.9577195434570313	0.0019719460010528566	0		-0.73149951171875	-2.242992431640625	0		1.435763671875	-0.74896826171875	0		3.220714111328125	-0.3185224304199219	0		4.8212109375	-0.20945767211914063	0		5.55203515625	0.1250167007446289	0		0.025630212783813475	5.96952734375	0		
-0.011384830474853516	0.0010839730501174926	0		0.4785640869140625	-2.360169921875	0		-1.0315208740234374	0.004454394817352295	0		-0.7333768310546875	-2.244947265625	0		1.4269886474609375	-0.745785888671875	0		3.200041748046875	-0.31010281372070314	0		4.81619580078125	-0.21835536193847657	0		5.55287939453125	0.10900004577636718	0		0.026758495330810546	5.96751171875	0		
0.010653189659118652	-0.0033347549438476564	0		0.48752288818359374	-2.36832861328125	0		-1.031398681640625	0.004475019931793213	0		-0.7573115234375	-2.247447021484375	0		1.3950968017578125	-0.7461281127929688	0		3.259732421875	-0.3322796020507813	0		4.82045703125	-0.21142083740234374	0		5.5664384765625	0.13075125122070314	0		0.043062232971191404	5.97621044921875	0		
-0.008117616653442383	0.004077168941497802	0		0.4937468566894531	-2.361416015625	0		-1.01543603515625	-0.0018092609643936158	0		-0.7531470336914062	-2.243493896484375	0		1.4422728271484375	-0.7420338745117188	0		3.238421630859375	-0.30181268310546877	0		4.825701171875	-0.2034888458251953	0		5.5524072265625	0.12506536865234374	0		0.026971925735473634	5.9675654296875	0		
0.014851633071899415	-3.3454000949859617E-4	0		0.50682080078125	-2.36062841796875	0		-0.9572940063476563	0.002077148914337158	0		-0.755130126953125	-2.24540771484375	0		1.430309814453125	-0.7427455444335938	0		3.211001708984375	-0.3252180786132812	0		4.82163623046875	-0.2093551483154297	0		5.55727978515625	0.1160208511352539	0		0.027018362045288086	5.9676123046875	0		
-0.011097171783447265	0.0012424700260162352	0		0.478859375	-2.360009765625	0		-1.0312332763671874	0.004609592914581299	0		-0.7310423583984375	-2.24283154296875	0		1.4303380126953125	-0.7426832275390625	0		3.227025634765625	-0.325469970703125	0		4.81852392578125	-0.21622158813476564	0		5.557345703125	0.11809488677978516	0		0.027026859283447266	5.96767041015625	0		
0.010820713996887207	-0.003128170013427734	0		0.503768310546875	-2.365437744140625	0		-0.957265869140625	0.0021954519748687744	0		-0.7808995361328125	-2.2357705078125	0		1.4303438720703125	-0.7426085205078125	0		3.235967529296875	-0.3285654296875	0		4.81166796875	-0.20899188232421875	0		5.54730908203125	0.11638988494873047	0		0.026999677658081055	5.96773828125	0		
-0.015192384719848634	-0.0025335850715637208	0		0.4877098388671875	-2.36803857421875	0		-1.03124951171875	0.004740809917449951	0		-0.7211735229492188	-2.249894775390625	0		1.4362098388671876	-0.7486412963867187	0		3.234390869140625	-0.30643161010742187	0		4.820609375	-0.21106175231933594	0		5.5572880859375	0.1163047866821289	0		0.026939764022827148	5.967814453125	0		
0.014826487541198731	-5.0112001597881316E-5	0		0.4829563598632812	-2.354854736328125	0		-1.02720556640625	0.008733487129211426	0		-0.7649402465820313	-2.236943603515625	0		1.39548876953125	-0.732731201171875	0		3.219942626953125	-0.3270366516113281	0		4.82057666015625	-0.2109359130859375	0		5.557251953125	0.11643724060058594	0		0.026851118087768553	5.96789697265625	0		
-0.011196285247802735	0.0015565390586853027	0		0.48087472534179687	-2.357720458984375	0		-0.9573671264648438	0.0024164469242095948	0		-0.7310701904296875	-2.242540283203125	0		1.4333416748046874	-0.738384033203125	0		3.24017333984375	-0.3133145751953125	0		4.825689453125	-0.20289625549316406	0		5.56238134765625	0.12548472595214843	0		-0.1056939468383789	5.94762158203125	0		
0.014721609115600586	1.3230200111865998E-4	0		0.505763427734375	-2.362117919921875	0		-0.9574241943359375	0.0024977419376373293	0		-0.7592322387695313	-2.24889697265625	0		1.430215087890625	-0.7422113647460937	0		3.209146484375	-0.31156192016601564	0		4.82151611328125	-0.20865962219238282	0		5.56232275390625	0.1256499786376953	0		0.02660441780090332	5.96807958984375	0		
